# 3ds Max Wavefront OBJ Exporter v0.97b - (c)2007 guruware
# File Created: 19.02.2019 01:13:46

mtllib table_low.mtl

#
# object Table_Top
#

v  2.4530 26.5966 36.3599
v  2.4530 26.5966 -31.3004
v  8.9134 26.5966 -31.3004
v  8.9134 26.5966 36.3599
v  2.4530 27.9526 36.1680
v  8.8013 27.9526 36.1680
v  8.8013 27.9526 -31.1085
v  2.4530 27.9526 -31.1085
v  8.9134 27.7433 36.3599
v  2.4530 27.7433 36.3599
v  8.9134 27.7433 -31.3004
v  2.4530 27.7433 -31.3004
v  -4.0311 26.5966 36.3599
v  -4.0311 26.5966 -31.3004
v  2.4292 26.5966 -31.3004
v  2.4292 26.5966 36.3599
v  -4.0311 27.9526 36.1680
v  2.4292 27.9526 36.1680
v  2.4292 27.9526 -31.1085
v  -4.0311 27.9526 -31.1085
v  2.4292 27.7433 36.3599
v  -4.0311 27.7433 36.3599
v  2.4292 27.7433 -31.3004
v  -4.0311 27.7433 -31.3004
v  -10.5151 26.5966 36.3599
v  -10.5151 26.5966 -31.3004
v  -4.0547 26.5966 -31.3004
v  -4.0547 26.5966 36.3599
v  -10.5151 27.9526 36.1680
v  -4.0547 27.9526 36.1680
v  -4.0547 27.9526 -31.1085
v  -10.5151 27.9526 -31.1085
v  -4.0547 27.7433 36.3599
v  -10.5151 27.7433 36.3599
v  -4.0547 27.7433 -31.3004
v  -10.5151 27.7433 -31.3004
v  -16.9908 26.5966 36.3599
v  -16.9908 26.5966 -31.3004
v  -10.5304 26.5966 -31.3004
v  -10.5304 26.5966 36.3599
v  -16.9908 27.9526 36.1680
v  -10.5304 27.9526 36.1680
v  -10.5304 27.9526 -31.1085
v  -16.9908 27.9526 -31.1085
v  -10.5304 27.7433 36.3599
v  -16.9908 27.7433 36.3599
v  -10.5304 27.7433 -31.3004
v  -16.9908 27.7433 -31.3004
v  -23.4702 26.5966 36.3599
v  -23.4702 26.5966 -31.3004
v  -17.0099 26.5966 -31.3004
v  -17.0099 26.5966 36.3599
v  -23.3582 27.9526 36.1680
v  -17.0099 27.9526 36.1680
v  -17.0099 27.9526 -31.1085
v  -23.3582 27.9526 -31.1085
v  -17.0099 27.7433 36.3599
v  -23.4702 27.7433 36.3599
v  -17.0099 27.7433 -31.3004
v  -23.4702 27.7433 -31.3004
# 60 vertices

vn -0.5774 -0.5774 0.5774
vn -0.5774 -0.5774 -0.5774
vn 0.5774 -0.5774 -0.5774
vn 0.5774 -0.5774 0.5774
vn -0.6303 0.7173 0.2971
vn 0.3002 0.9054 0.3002
vn 0.3002 0.9054 -0.3002
vn -0.6303 0.7173 -0.2971
vn 0.6507 0.3914 0.6507
vn -0.6303 0.2971 0.7173
vn 0.6507 0.3914 -0.6507
vn -0.6303 0.2971 -0.7173
vn 0.6303 0.7173 0.2971
vn 0.6303 0.7173 -0.2971
vn 0.6303 0.2971 0.7173
vn 0.6303 0.2971 -0.7173
vn -0.3002 0.9054 0.3002
vn -0.3002 0.9054 -0.3002
vn -0.6507 0.3914 0.6507
vn -0.6507 0.3914 -0.6507
# 20 vertex normals

vt 0.8388 0.9915 0.0000
vt 0.8388 0.4694 0.0000
vt 0.8887 0.4694 0.0000
vt 0.8887 0.9915 0.0000
vt 0.5415 0.0213 0.0000
vt 0.6425 0.0213 0.0000
vt 0.6425 0.9760 0.0000
vt 0.5415 0.9760 0.0000
vt 0.5415 0.0010 0.0000
vt 0.6443 0.0010 0.0000
vt 0.6443 0.0172 0.0000
vt 0.5415 0.0172 0.0000
vt 0.6645 0.0185 0.0000
vt 0.6645 0.9787 0.0000
vt 0.6462 0.9787 0.0000
vt 0.6462 0.0185 0.0000
vt 0.6443 0.9963 0.0000
vt 0.5415 0.9963 0.0000
vt 0.5415 0.9800 0.0000
vt 0.6443 0.9800 0.0000
vt 0.5200 0.9787 0.0000
vt 0.5200 0.0185 0.0000
vt 0.5382 0.0185 0.0000
vt 0.5382 0.9787 0.0000
vt 0.8380 0.4632 0.0000
vt 0.8380 0.0115 0.0000
vt 0.8811 0.0115 0.0000
vt 0.8811 0.4632 0.0000
vt 0.4969 0.9790 0.0000
vt 0.3895 0.9790 0.0000
vt 0.3895 0.0215 0.0000
vt 0.4969 0.0215 0.0000
vt 0.4969 0.9994 0.0000
vt 0.3895 0.9994 0.0000
vt 0.3895 0.9830 0.0000
vt 0.4969 0.9830 0.0000
vt 0.3670 0.9817 0.0000
vt 0.3670 0.0188 0.0000
vt 0.3860 0.0188 0.0000
vt 0.3860 0.9817 0.0000
vt 0.3895 0.0012 0.0000
vt 0.4969 0.0012 0.0000
vt 0.4969 0.0175 0.0000
vt 0.3895 0.0175 0.0000
vt 0.5194 0.0188 0.0000
vt 0.5194 0.9817 0.0000
vt 0.5004 0.9817 0.0000
vt 0.5004 0.0188 0.0000
vt 0.9411 0.9915 0.0000
vt 0.9411 0.4694 0.0000
vt 0.9909 0.4694 0.0000
vt 0.9909 0.9915 0.0000
vt 0.3399 0.9791 0.0000
vt 0.2128 0.9791 0.0000
vt 0.2128 0.0215 0.0000
vt 0.3399 0.0215 0.0000
vt 0.3399 0.9994 0.0000
vt 0.2128 0.9994 0.0000
vt 0.2128 0.9831 0.0000
vt 0.3399 0.9831 0.0000
vt 0.1862 0.9818 0.0000
vt 0.1862 0.0188 0.0000
vt 0.2087 0.0188 0.0000
vt 0.2087 0.9818 0.0000
vt 0.2128 0.0012 0.0000
vt 0.3399 0.0012 0.0000
vt 0.3399 0.0175 0.0000
vt 0.2128 0.0175 0.0000
vt 0.3666 0.0188 0.0000
vt 0.3666 0.9818 0.0000
vt 0.3440 0.9818 0.0000
vt 0.3440 0.0188 0.0000
vt 0.8900 0.9915 0.0000
vt 0.8900 0.4694 0.0000
vt 0.9398 0.4694 0.0000
vt 0.9398 0.9915 0.0000
vt 0.1583 0.9789 0.0000
vt 0.0277 0.9789 0.0000
vt 0.0277 0.0222 0.0000
vt 0.1583 0.0222 0.0000
vt 0.1583 0.9993 0.0000
vt 0.0277 0.9993 0.0000
vt 0.0277 0.9830 0.0000
vt 0.1583 0.9830 0.0000
vt 0.0003 0.9817 0.0000
vt 0.0003 0.0194 0.0000
vt 0.0235 0.0194 0.0000
vt 0.0235 0.9817 0.0000
vt 0.0277 0.0018 0.0000
vt 0.1583 0.0018 0.0000
vt 0.1583 0.0181 0.0000
vt 0.0277 0.0181 0.0000
vt 0.1857 0.0194 0.0000
vt 0.1857 0.9817 0.0000
vt 0.1625 0.9817 0.0000
vt 0.1625 0.0194 0.0000
vt 0.8822 0.4632 0.0000
vt 0.8822 0.0115 0.0000
vt 0.9253 0.0115 0.0000
vt 0.9253 0.4632 0.0000
vt 0.8036 0.9727 0.0000
vt 0.6893 0.9727 0.0000
vt 0.6893 0.0214 0.0000
vt 0.8036 0.0214 0.0000
vt 0.8057 0.9929 0.0000
vt 0.6893 0.9929 0.0000
vt 0.6893 0.9767 0.0000
vt 0.8057 0.9767 0.0000
vt 0.6649 0.9754 0.0000
vt 0.6649 0.0187 0.0000
vt 0.6856 0.0187 0.0000
vt 0.6856 0.9754 0.0000
vt 0.6893 0.0012 0.0000
vt 0.8057 0.0012 0.0000
vt 0.8057 0.0174 0.0000
vt 0.6893 0.0174 0.0000
vt 0.8286 0.0187 0.0000
vt 0.8286 0.9754 0.0000
vt 0.8079 0.9754 0.0000
vt 0.8079 0.0187 0.0000
# 120 texture coords

o Table_Top
g Table_Top
usemtl Top
s 1
f -60/-120/-20 -59/-119/-19 -58/-118/-18 -57/-117/-17 
f -56/-116/-16 -55/-115/-15 -54/-114/-14 -53/-113/-13 
f -60/-112/-20 -57/-111/-17 -52/-110/-12 -51/-109/-11 
f -57/-108/-17 -58/-107/-18 -50/-106/-10 -52/-105/-12 
f -58/-104/-18 -59/-103/-19 -49/-102/-9 -50/-101/-10 
f -59/-100/-19 -60/-99/-20 -51/-98/-11 -56/-116/-16 -53/-113/-13 -49/-97/-9 
f -48/-96/-20 -47/-95/-19 -46/-94/-18 -45/-93/-17 
f -44/-92/-16 -43/-91/-8 -42/-90/-7 -41/-89/-13 
f -48/-88/-20 -45/-87/-17 -40/-86/-6 -39/-85/-11 
f -45/-84/-17 -46/-83/-18 -38/-82/-5 -42/-90/-7 -43/-91/-8 -40/-81/-6 
f -46/-80/-18 -47/-79/-19 -37/-78/-9 -38/-77/-5 
f -47/-76/-19 -48/-75/-20 -39/-74/-11 -44/-92/-16 -41/-89/-13 -37/-73/-9 
f -36/-72/-20 -35/-71/-19 -34/-70/-18 -33/-69/-17 
f -32/-68/-16 -31/-67/-8 -30/-66/-7 -29/-65/-13 
f -36/-64/-20 -33/-63/-17 -28/-62/-6 -27/-61/-11 
f -33/-60/-17 -34/-59/-18 -26/-58/-5 -30/-66/-7 -31/-67/-8 -28/-57/-6 
f -34/-56/-18 -35/-55/-19 -25/-54/-9 -26/-53/-5 
f -35/-52/-19 -36/-51/-20 -27/-50/-11 -32/-68/-16 -29/-65/-13 -25/-49/-9 
f -24/-48/-20 -23/-47/-19 -22/-46/-18 -21/-45/-17 
f -20/-44/-16 -19/-43/-8 -18/-42/-7 -17/-41/-13 
f -24/-40/-20 -21/-39/-17 -16/-38/-6 -15/-37/-11 
f -21/-36/-17 -22/-35/-18 -14/-34/-5 -18/-42/-7 -19/-43/-8 -16/-33/-6 
f -22/-32/-18 -23/-31/-19 -13/-30/-9 -14/-29/-5 
f -23/-28/-19 -24/-27/-20 -15/-26/-11 -20/-44/-16 -17/-41/-13 -13/-25/-9 
f -12/-24/-20 -11/-23/-19 -10/-22/-18 -9/-21/-17 
f -8/-20/-4 -7/-19/-8 -6/-18/-7 -5/-17/-3 
f -12/-16/-20 -9/-15/-17 -4/-14/-6 -3/-13/-2 
f -9/-12/-17 -10/-11/-18 -2/-10/-5 -6/-18/-7 -7/-19/-8 -4/-9/-6 
f -10/-8/-18 -11/-7/-19 -1/-6/-1 -2/-5/-5 
f -11/-4/-19 -12/-3/-20 -3/-2/-2 -1/-1/-1 
f -56/-116/-16 -51/-109/-11 -52/-110/-12 -55/-115/-15 
f -55/-115/-15 -52/-105/-12 -50/-106/-10 -54/-114/-14 
f -54/-114/-14 -50/-101/-10 -49/-102/-9 -53/-113/-13 
f -44/-92/-16 -39/-85/-11 -40/-86/-6 -43/-91/-8 
f -42/-90/-7 -38/-77/-5 -37/-78/-9 -41/-89/-13 
f -32/-68/-16 -27/-61/-11 -28/-62/-6 -31/-67/-8 
f -30/-66/-7 -26/-53/-5 -25/-54/-9 -29/-65/-13 
f -20/-44/-16 -15/-37/-11 -16/-38/-6 -19/-43/-8 
f -18/-42/-7 -14/-29/-5 -13/-30/-9 -17/-41/-13 
f -8/-20/-4 -3/-13/-2 -4/-14/-6 -7/-19/-8 
f -6/-18/-7 -2/-5/-5 -1/-6/-1 -5/-17/-3 
f -5/-17/-3 -1/-1/-1 -3/-2/-2 -8/-20/-4 
# 42 polygons

#
# object Table_bot
#

v  8.7744 25.8333 -27.7629
v  8.7744 25.8333 33.6185
v  8.7744 23.3558 33.6185
v  8.7744 23.3558 -27.7629
v  8.0751 25.9221 -27.7629
v  8.0751 23.2669 -27.7629
v  8.0751 23.2669 33.6185
v  8.0751 25.9221 33.6185
v  8.5660 25.9221 -27.7629
v  8.5660 23.2669 -27.7629
v  8.5660 23.2669 33.6185
v  8.5660 25.9221 33.6185
v  5.9013 0.2102 -23.4244
v  5.9013 26.6013 -23.4244
v  5.9013 26.6013 -27.7497
v  5.9013 0.2102 -27.7497
v  8.0721 0.2102 -23.4244
v  8.0721 0.2102 -27.4071
v  8.0721 26.6013 -27.4071
v  8.0721 26.6013 -23.4244
v  7.8638 0.2102 -27.7497
v  7.8638 26.6013 -27.7497
v  7.8633 25.9615 -27.7613
v  -22.0554 25.9615 -27.7613
v  -22.0554 20.6186 -27.7613
v  7.8633 20.6186 -27.7613
v  7.8633 25.9615 -28.5276
v  7.8633 20.6186 -28.5276
v  -22.0554 20.6186 -28.5276
v  -22.0554 25.9615 -28.5276
v  7.8633 7.6067 -22.6524
v  -22.0554 7.6067 -22.6524
v  -22.0554 2.2638 -22.6524
v  7.8633 2.2638 -22.6524
v  7.8633 7.6067 -23.4186
v  7.8633 2.2638 -23.4186
v  -22.0554 2.2638 -23.4186
v  -22.0554 7.6067 -23.4186
v  -22.3223 0.2102 -23.4244
v  -22.3223 26.6013 -23.4244
v  -22.3223 26.6013 -27.4071
v  -22.3223 0.2102 -27.4071
v  -20.1515 0.2102 -23.4244
v  -20.1515 0.2102 -27.7497
v  -20.1515 26.6013 -27.7497
v  -20.1515 26.6013 -23.4244
v  -22.1140 0.2102 -27.7497
v  -22.1140 26.6013 -27.7497
v  -22.3223 0.2102 33.2696
v  -22.3223 26.6013 33.2696
v  -22.3223 26.6013 29.2869
v  -22.3223 0.2102 29.2869
v  -20.1515 0.2102 33.6121
v  -20.1515 0.2102 29.2869
v  -20.1515 26.6013 29.2869
v  -20.1515 26.6013 33.6121
v  -22.1140 0.2102 33.6121
v  -22.1140 26.6013 33.6121
v  7.8633 7.6067 29.2750
v  -22.0554 7.6067 29.2750
v  -22.0554 2.2638 29.2750
v  7.8633 2.2638 29.2750
v  7.8633 7.6067 28.5087
v  7.8633 2.2638 28.5087
v  -22.0554 2.2638 28.5087
v  -22.0554 7.6067 28.5087
v  5.9013 0.2102 33.6121
v  5.9013 26.6013 33.6121
v  5.9013 26.6013 29.2869
v  5.9013 0.2102 29.2869
v  8.0721 0.2102 33.2696
v  8.0721 0.2102 29.2869
v  8.0721 26.6013 29.2869
v  8.0721 26.6013 33.2696
v  7.8638 0.2102 33.6121
v  7.8638 26.6013 33.6121
v  7.8633 25.9615 34.3856
v  -22.0554 25.9615 34.3856
v  -22.0554 20.6186 34.3856
v  7.8633 20.6186 34.3856
v  7.8633 25.9615 33.6194
v  7.8633 20.6186 33.6194
v  -22.0554 20.6186 33.6194
v  -22.0554 25.9615 33.6194
v  -22.3330 25.9221 -27.7629
v  -22.3330 25.9221 33.6185
v  -22.3330 23.2669 33.6185
v  -22.3330 23.2669 -27.7629
v  -23.0322 25.8333 -27.7629
v  -23.0322 23.3558 -27.7629
v  -23.0322 23.3558 33.6185
v  -23.0322 25.8333 33.6185
v  -22.8239 23.2669 -27.7629
v  -22.8239 25.9221 -27.7629
v  -22.8239 23.2669 33.6185
v  -22.8239 25.9221 33.6185
v  -6.2048 10.1566 -25.6025
v  -6.2048 10.1566 31.9072
v  -6.2048 4.9025 31.9072
v  -6.2048 4.9025 -25.6025
v  -7.9873 10.1566 -25.6025
v  -7.9873 4.9025 -25.6025
v  -7.9873 4.9025 31.9072
v  -7.9873 10.1566 31.9072
v  -6.4132 10.2454 31.5647
v  -6.4132 10.2454 -25.2600
v  -7.7789 10.2454 -25.2600
v  -7.7789 10.2454 31.5647
# 108 vertices

vn 0.7173 0.2971 -0.6303
vn 0.7173 0.2971 0.6303
vn 0.7173 -0.2971 0.6303
vn 0.7173 -0.2971 -0.6303
vn -0.5774 0.5774 -0.5774
vn -0.5774 -0.5774 -0.5774
vn -0.5774 -0.5774 0.5774
vn -0.5774 0.5774 0.5774
vn 0.2971 0.7173 -0.6303
vn 0.2971 -0.7173 -0.6303
vn 0.2972 -0.7173 0.6302
vn 0.2971 0.7173 0.6303
vn 0.5774 -0.5774 0.5774
vn 0.7173 -0.6302 -0.2972
vn 0.7173 0.6303 -0.2971
vn 0.5774 0.5774 0.5774
vn 0.2971 -0.6303 -0.7173
vn 0.2972 0.6302 -0.7173
vn 0.5774 0.5774 -0.5774
vn 0.5774 -0.5774 -0.5774
vn 0.5774 0.5774 0.5773
vn 0.5774 -0.5774 0.5773
vn 0.5773 0.5773 -0.5774
vn 0.5773 -0.5773 -0.5774
vn -0.7173 0.6303 -0.2971
vn -0.7173 -0.6303 -0.2971
vn -0.2971 -0.6303 -0.7173
vn -0.2971 0.6303 -0.7173
vn -0.7173 -0.6303 0.2971
vn -0.7173 0.6303 0.2971
vn -0.2971 -0.6303 0.7173
vn -0.2971 0.6303 0.7173
vn 0.7173 -0.6302 0.2972
vn 0.7173 0.6303 0.2971
vn 0.2971 -0.6303 0.7173
vn 0.2972 0.6302 0.7173
vn -0.7173 0.2971 -0.6303
vn -0.7173 -0.2971 -0.6303
vn -0.7173 -0.2971 0.6303
vn -0.7173 0.2971 0.6303
vn -0.2971 -0.7173 -0.6303
vn -0.2971 0.7173 -0.6303
vn -0.2971 -0.7173 0.6303
vn -0.2971 0.7173 0.6303
vn 0.6507 0.3914 -0.6507
vn 0.6507 0.3914 0.6507
vn -0.6507 0.3914 -0.6507
vn -0.6507 0.3914 0.6507
vn 0.3002 0.9054 0.3002
vn 0.3002 0.9054 -0.3002
vn -0.3002 0.9054 -0.3002
vn -0.3002 0.9054 0.3002
# 52 vertex normals

vt 0.0005 0.7621 0.0000
vt 0.3882 0.7621 0.0000
vt 0.3882 0.8224 0.0000
vt 0.0005 0.8224 0.0000
vt 0.3882 0.6846 0.0000
vt 0.3882 0.7492 0.0000
vt 0.0005 0.7492 0.0000
vt 0.0005 0.6846 0.0000
vt 0.7530 0.3310 0.0000
vt 0.7551 0.3288 0.0000
vt 0.8155 0.3288 0.0000
vt 0.8176 0.3310 0.0000
vt 0.8176 0.3361 0.0000
vt 0.7530 0.3361 0.0000
vt 0.0005 0.8259 0.0000
vt 0.3882 0.8259 0.0000
vt 0.3882 0.8310 0.0000
vt 0.0005 0.8310 0.0000
vt 0.7484 0.0072 0.0000
vt 0.7506 0.0051 0.0000
vt 0.8109 0.0051 0.0000
vt 0.8131 0.0072 0.0000
vt 0.8131 0.0123 0.0000
vt 0.7484 0.0123 0.0000
vt 0.0005 0.7530 0.0000
vt 0.3882 0.7530 0.0000
vt 0.3882 0.7581 0.0000
vt 0.0005 0.7581 0.0000
vt 0.0780 0.6796 0.0000
vt 0.0780 0.0370 0.0000
vt 0.1053 0.0370 0.0000
vt 0.1053 0.6796 0.0000
vt 0.3038 0.6796 0.0000
vt 0.2787 0.6796 0.0000
vt 0.2787 0.0370 0.0000
vt 0.3038 0.0370 0.0000
vt 0.8761 0.5431 0.0000
vt 0.8761 0.5158 0.0000
vt 0.8965 0.5158 0.0000
vt 0.8986 0.5180 0.0000
vt 0.8986 0.5431 0.0000
vt 0.2194 0.6796 0.0000
vt 0.2194 0.0370 0.0000
vt 0.2398 0.0370 0.0000
vt 0.2398 0.6796 0.0000
vt 0.7256 0.3924 0.0000
vt 0.6982 0.3924 0.0000
vt 0.6982 0.3699 0.0000
vt 0.7234 0.3699 0.0000
vt 0.7256 0.3721 0.0000
vt 0.1920 0.6796 0.0000
vt 0.1920 0.0370 0.0000
vt 0.2146 0.0370 0.0000
vt 0.2146 0.6796 0.0000
vt 0.7399 0.6642 0.0000
vt 0.4292 0.6642 0.0000
vt 0.4292 0.5341 0.0000
vt 0.7399 0.5341 0.0000
vt 0.7399 0.4018 0.0000
vt 0.7399 0.5319 0.0000
vt 0.4292 0.5319 0.0000
vt 0.4292 0.4018 0.0000
vt 0.3927 0.8487 0.0000
vt 0.5228 0.8487 0.0000
vt 0.5228 0.8536 0.0000
vt 0.3927 0.8536 0.0000
vt 0.8809 0.0142 0.0000
vt 0.8809 0.3249 0.0000
vt 0.8761 0.3249 0.0000
vt 0.8761 0.0142 0.0000
vt 0.6642 0.8536 0.0000
vt 0.5341 0.8536 0.0000
vt 0.5341 0.8487 0.0000
vt 0.6642 0.8487 0.0000
vt 0.9126 0.3249 0.0000
vt 0.9126 0.0142 0.0000
vt 0.9174 0.0142 0.0000
vt 0.9174 0.3249 0.0000
vt 0.9788 0.6754 0.0000
vt 0.9788 0.9862 0.0000
vt 0.8487 0.9862 0.0000
vt 0.8487 0.6754 0.0000
vt 0.7438 0.3380 0.0000
vt 0.8740 0.3380 0.0000
vt 0.8740 0.6487 0.0000
vt 0.7438 0.6487 0.0000
vt 0.8809 0.3380 0.0000
vt 0.8809 0.4681 0.0000
vt 0.8761 0.4681 0.0000
vt 0.8761 0.3380 0.0000
vt 0.8992 0.0142 0.0000
vt 0.8992 0.3249 0.0000
vt 0.8943 0.3249 0.0000
vt 0.8943 0.0142 0.0000
vt 0.7074 0.9560 0.0000
vt 0.7074 0.8259 0.0000
vt 0.7122 0.8259 0.0000
vt 0.7122 0.9560 0.0000
vt 0.8852 0.3249 0.0000
vt 0.8852 0.0142 0.0000
vt 0.8901 0.0142 0.0000
vt 0.8901 0.3249 0.0000
vt 0.3927 0.6796 0.0000
vt 0.3927 0.0370 0.0000
vt 0.4179 0.0370 0.0000
vt 0.4179 0.6796 0.0000
vt 0.3881 0.6796 0.0000
vt 0.3608 0.6796 0.0000
vt 0.3608 0.0370 0.0000
vt 0.3881 0.0370 0.0000
vt 0.8852 0.4611 0.0000
vt 0.8852 0.4359 0.0000
vt 0.8874 0.4337 0.0000
vt 0.9078 0.4337 0.0000
vt 0.9078 0.4611 0.0000
vt 0.0552 0.6796 0.0000
vt 0.0552 0.0370 0.0000
vt 0.0756 0.0370 0.0000
vt 0.0756 0.6796 0.0000
vt 0.6845 0.0254 0.0000
vt 0.6824 0.0276 0.0000
vt 0.6572 0.0276 0.0000
vt 0.6572 0.0051 0.0000
vt 0.6845 0.0051 0.0000
vt 0.0005 0.6751 0.0000
vt 0.0005 0.0324 0.0000
vt 0.0230 0.0324 0.0000
vt 0.0230 0.6751 0.0000
vt 0.1121 0.6796 0.0000
vt 0.1121 0.0370 0.0000
vt 0.1373 0.0370 0.0000
vt 0.1373 0.6796 0.0000
vt 0.0051 0.0278 0.0000
vt 0.0051 0.0005 0.0000
vt 0.6477 0.0005 0.0000
vt 0.6477 0.0278 0.0000
vt 0.8874 0.3881 0.0000
vt 0.8852 0.3859 0.0000
vt 0.8852 0.3608 0.0000
vt 0.9078 0.3608 0.0000
vt 0.9078 0.3881 0.0000
vt 0.0279 0.6796 0.0000
vt 0.0279 0.0370 0.0000
vt 0.0504 0.0370 0.0000
vt 0.0504 0.6796 0.0000
vt 0.9217 0.3514 0.0000
vt 0.8965 0.3514 0.0000
vt 0.8943 0.3492 0.0000
vt 0.8943 0.3288 0.0000
vt 0.9217 0.3288 0.0000
vt 0.1419 0.6796 0.0000
vt 0.1419 0.0370 0.0000
vt 0.1623 0.0370 0.0000
vt 0.1623 0.6796 0.0000
vt 0.8648 0.0142 0.0000
vt 0.8648 0.3249 0.0000
vt 0.7347 0.3249 0.0000
vt 0.7347 0.0142 0.0000
vt 0.7165 0.6754 0.0000
vt 0.8466 0.6754 0.0000
vt 0.8466 0.9862 0.0000
vt 0.7165 0.9862 0.0000
vt 0.3927 0.9901 0.0000
vt 0.5228 0.9901 0.0000
vt 0.5228 0.9949 0.0000
vt 0.3927 0.9949 0.0000
vt 0.8718 0.0142 0.0000
vt 0.8718 0.3249 0.0000
vt 0.8670 0.3249 0.0000
vt 0.8670 0.0142 0.0000
vt 0.6642 0.9949 0.0000
vt 0.5341 0.9949 0.0000
vt 0.5341 0.9901 0.0000
vt 0.6642 0.9901 0.0000
vt 0.9217 0.3249 0.0000
vt 0.9217 0.0142 0.0000
vt 0.9265 0.0142 0.0000
vt 0.9265 0.3249 0.0000
vt 0.2468 0.6796 0.0000
vt 0.2468 0.0370 0.0000
vt 0.2741 0.0370 0.0000
vt 0.2741 0.6796 0.0000
vt 0.1898 0.6796 0.0000
vt 0.1647 0.6796 0.0000
vt 0.1647 0.0370 0.0000
vt 0.1898 0.0370 0.0000
vt 0.8852 0.4246 0.0000
vt 0.8852 0.3973 0.0000
vt 0.9078 0.3973 0.0000
vt 0.9078 0.4224 0.0000
vt 0.9056 0.4246 0.0000
vt 0.3060 0.6796 0.0000
vt 0.3060 0.0370 0.0000
vt 0.3286 0.0370 0.0000
vt 0.3286 0.6796 0.0000
vt 0.8761 0.5067 0.0000
vt 0.8761 0.4793 0.0000
vt 0.8965 0.4793 0.0000
vt 0.8986 0.4815 0.0000
vt 0.8986 0.5067 0.0000
vt 0.3334 0.6796 0.0000
vt 0.3334 0.0370 0.0000
vt 0.3538 0.0370 0.0000
vt 0.3538 0.6796 0.0000
vt 0.3927 0.8579 0.0000
vt 0.7034 0.8579 0.0000
vt 0.7034 0.9880 0.0000
vt 0.3927 0.9880 0.0000
vt 0.3927 0.8466 0.0000
vt 0.3927 0.7165 0.0000
vt 0.7034 0.7165 0.0000
vt 0.7034 0.8466 0.0000
vt 0.5569 0.6846 0.0000
vt 0.6870 0.6846 0.0000
vt 0.6870 0.6894 0.0000
vt 0.5569 0.6894 0.0000
vt 0.9083 0.0142 0.0000
vt 0.9083 0.3249 0.0000
vt 0.9035 0.3249 0.0000
vt 0.9035 0.0142 0.0000
vt 0.7074 0.8147 0.0000
vt 0.7074 0.6846 0.0000
vt 0.7122 0.6846 0.0000
vt 0.7122 0.8147 0.0000
vt 0.4292 0.6663 0.0000
vt 0.7399 0.6663 0.0000
vt 0.7399 0.6712 0.0000
vt 0.4292 0.6712 0.0000
vt 0.0005 0.9263 0.0000
vt 0.3882 0.9263 0.0000
vt 0.3882 0.9909 0.0000
vt 0.0005 0.9909 0.0000
vt 0.3882 0.8442 0.0000
vt 0.3882 0.9045 0.0000
vt 0.0005 0.9045 0.0000
vt 0.0005 0.8442 0.0000
vt 0.7530 0.6526 0.0000
vt 0.8176 0.6526 0.0000
vt 0.8176 0.6577 0.0000
vt 0.8155 0.6599 0.0000
vt 0.7551 0.6599 0.0000
vt 0.7530 0.6577 0.0000
vt 0.0005 0.9171 0.0000
vt 0.3882 0.9171 0.0000
vt 0.3882 0.9222 0.0000
vt 0.0005 0.9222 0.0000
vt 0.7530 0.6618 0.0000
vt 0.8176 0.6618 0.0000
vt 0.8176 0.6669 0.0000
vt 0.8155 0.6690 0.0000
vt 0.7551 0.6690 0.0000
vt 0.7530 0.6669 0.0000
vt 0.0005 0.9080 0.0000
vt 0.3882 0.9080 0.0000
vt 0.3882 0.9131 0.0000
vt 0.0005 0.9131 0.0000
vt 0.2419 0.6796 0.0000
vt 0.2419 0.0370 0.0000
vt 0.4200 0.0370 0.0000
vt 0.4200 0.6796 0.0000
vt 0.1099 0.6796 0.0000
vt 0.1099 0.0370 0.0000
vt 0.3560 0.6796 0.0000
vt 0.3560 0.0370 0.0000
vt 0.3882 0.8396 0.0000
vt 0.3882 0.8427 0.0000
vt 0.0005 0.8427 0.0000
vt 0.0005 0.8396 0.0000
vt 0.3882 0.8351 0.0000
vt 0.3882 0.8381 0.0000
vt 0.0005 0.8381 0.0000
vt 0.0005 0.8351 0.0000
vt 0.0005 0.9244 0.0000
vt 0.3882 0.9244 0.0000
vt 0.0005 0.9153 0.0000
vt 0.3882 0.9153 0.0000
vt 0.5569 0.4003 0.0000
vt 0.5569 0.0370 0.0000
vt 0.6848 0.0370 0.0000
vt 0.6848 0.4003 0.0000
vt 0.5526 0.4003 0.0000
vt 0.4246 0.4003 0.0000
vt 0.4246 0.0370 0.0000
vt 0.5526 0.0370 0.0000
vt 0.9995 0.8579 0.0000
vt 0.9995 0.9858 0.0000
vt 0.9810 0.9858 0.0000
vt 0.9810 0.8579 0.0000
vt 0.7122 0.0051 0.0000
vt 0.7122 0.3683 0.0000
vt 0.6937 0.3683 0.0000
vt 0.6937 0.0051 0.0000
vt 0.4246 0.6846 0.0000
vt 0.5526 0.6846 0.0000
vt 0.5526 0.7031 0.0000
vt 0.4246 0.7031 0.0000
vt 0.7186 0.3662 0.0000
vt 0.7186 0.0072 0.0000
vt 0.7328 0.0072 0.0000
vt 0.7328 0.3662 0.0000
vt 0.6922 0.3683 0.0000
vt 0.6891 0.3662 0.0000
vt 0.6891 0.0072 0.0000
vt 0.6922 0.0051 0.0000
vt 0.0005 0.9977 0.0000
vt 0.0027 0.9947 0.0000
vt 0.3616 0.9947 0.0000
vt 0.3638 0.9977 0.0000
vt 0.7350 0.0051 0.0000
vt 0.7165 0.0051 0.0000
vt 0.5547 0.6867 0.0000
vt 0.5547 0.7009 0.0000
# 312 texture coords

o Table_bot
g Table_bot
usemtl Bot
s 1
f -108/-312/-52 -107/-311/-51 -106/-310/-50 -105/-309/-49 
f -104/-308/-48 -103/-307/-47 -102/-306/-46 -101/-305/-45 
f -100/-304/-44 -108/-303/-52 -105/-302/-49 -99/-301/-43 -103/-300/-47 -104/-299/-48 
f -99/-298/-43 -98/-297/-42 -102/-296/-46 -103/-295/-47 
f -98/-294/-42 -106/-293/-50 -107/-292/-51 -97/-291/-41 -101/-290/-45 -102/-289/-46 
f -97/-288/-41 -100/-287/-44 -104/-286/-48 -101/-285/-45 
f -96/-284/-46 -95/-283/-45 -94/-282/-48 -93/-281/-47 
f -92/-280/-40 -91/-279/-39 -90/-278/-38 -89/-277/-37 
f -96/-276/-46 -93/-275/-47 -88/-274/-36 -91/-273/-39 -92/-272/-40 
f -93/-271/-47 -94/-270/-48 -87/-269/-35 -88/-268/-36 
f -94/-267/-48 -95/-266/-45 -89/-265/-37 -90/-264/-38 -87/-263/-35 
f -95/-262/-45 -96/-261/-46 -92/-260/-40 -89/-259/-37 
f -86/-258/-37 -85/-257/-45 -84/-256/-46 -83/-255/-40 
f -82/-254/-34 -81/-253/-33 -80/-252/-47 -79/-251/-48 
f -86/-250/-37 -83/-249/-40 -81/-248/-33 -82/-247/-34 
f -83/-246/-40 -84/-245/-46 -80/-244/-47 -81/-243/-33 
f -84/-242/-46 -85/-241/-45 -79/-240/-48 -80/-239/-47 
f -85/-238/-45 -86/-237/-37 -82/-236/-34 -79/-235/-48 
f -78/-234/-32 -77/-233/-45 -76/-232/-46 -75/-231/-31 
f -74/-230/-30 -73/-229/-29 -72/-228/-47 -71/-227/-48 
f -78/-226/-32 -75/-225/-31 -73/-224/-29 -74/-223/-30 
f -75/-222/-31 -76/-221/-46 -72/-220/-47 -73/-219/-29 
f -76/-218/-46 -77/-217/-45 -71/-216/-48 -72/-215/-47 
f -77/-214/-45 -78/-213/-32 -74/-212/-30 -71/-211/-48 
f -70/-210/-46 -69/-209/-45 -68/-208/-28 -67/-207/-27 
f -66/-206/-40 -65/-205/-33 -64/-204/-34 -63/-203/-37 
f -70/-202/-46 -67/-201/-27 -62/-200/-26 -65/-199/-33 -66/-198/-40 
f -62/-197/-26 -61/-196/-25 -64/-195/-34 -65/-194/-33 
f -61/-193/-25 -68/-192/-28 -69/-191/-45 -63/-190/-37 -64/-189/-34 
f -69/-188/-45 -70/-187/-46 -66/-186/-40 -63/-185/-37 
f -60/-184/-24 -59/-183/-23 -58/-182/-48 -57/-181/-47 
f -56/-180/-40 -55/-179/-33 -54/-178/-34 -53/-177/-37 
f -52/-176/-22 -60/-175/-24 -57/-174/-47 -55/-173/-33 -56/-172/-40 
f -57/-171/-47 -58/-170/-48 -54/-169/-34 -55/-168/-33 
f -58/-167/-48 -59/-166/-23 -51/-165/-21 -53/-164/-37 -54/-163/-34 
f -51/-162/-21 -52/-161/-22 -56/-160/-40 -53/-159/-37 
f -50/-158/-37 -49/-157/-45 -48/-156/-46 -47/-155/-40 
f -46/-154/-34 -45/-153/-33 -44/-152/-47 -43/-151/-48 
f -50/-150/-37 -47/-149/-40 -45/-148/-33 -46/-147/-34 
f -47/-146/-40 -48/-145/-46 -44/-144/-47 -45/-143/-33 
f -48/-142/-46 -49/-141/-45 -43/-140/-48 -44/-139/-47 
f -49/-138/-45 -50/-137/-37 -46/-136/-34 -43/-135/-48 
f -42/-134/-46 -41/-133/-45 -40/-132/-48 -39/-131/-47 
f -38/-130/-20 -37/-129/-33 -36/-128/-34 -35/-127/-19 
f -42/-126/-46 -39/-125/-47 -37/-124/-33 -38/-123/-20 -34/-122/-18 
f -39/-121/-47 -40/-120/-48 -36/-119/-34 -37/-118/-33 
f -40/-117/-48 -41/-116/-45 -33/-115/-17 -35/-114/-19 -36/-113/-34 
f -41/-112/-45 -42/-111/-46 -34/-110/-18 -33/-109/-17 
f -32/-108/-37 -31/-107/-45 -30/-106/-46 -29/-105/-40 
f -28/-104/-34 -27/-103/-33 -26/-102/-47 -25/-101/-48 
f -32/-100/-37 -29/-99/-40 -27/-98/-33 -28/-97/-34 
f -29/-96/-40 -30/-95/-46 -26/-94/-47 -27/-93/-33 
f -30/-92/-46 -31/-91/-45 -25/-90/-48 -26/-89/-47 
f -31/-88/-45 -32/-87/-37 -28/-86/-34 -25/-85/-48 
f -24/-84/-34 -23/-83/-37 -22/-82/-40 -21/-81/-33 
f -20/-80/-16 -19/-79/-15 -18/-78/-14 -17/-77/-13 
f -24/-76/-34 -21/-75/-33 -16/-74/-12 -19/-73/-15 -20/-72/-16 -15/-71/-11 
f -21/-70/-33 -22/-69/-40 -14/-68/-10 -16/-67/-12 
f -22/-66/-40 -23/-65/-37 -13/-64/-9 -17/-63/-13 -18/-62/-14 -14/-61/-10 
f -23/-60/-37 -24/-59/-34 -15/-58/-11 -13/-57/-9 
f -91/-56/-39 -88/-268/-36 -87/-269/-35 -90/-55/-38 
f -68/-208/-28 -61/-54/-25 -62/-53/-26 -67/-207/-27 
f -60/-184/-24 -52/-52/-22 -51/-51/-21 -59/-183/-23 
f -35/-50/-19 -33/-109/-17 -34/-110/-18 -38/-49/-20 
f -108/-48/-52 -100/-47/-44 -97/-46/-41 -107/-45/-51 
f -106/-44/-50 -98/-43/-42 -99/-42/-43 -105/-41/-49 
f -19/-40/-15 -16/-67/-12 -14/-68/-10 -18/-39/-14 
f -17/-38/-13 -13/-57/-9 -15/-58/-11 -20/-37/-16 
f -12/-36/-8 -11/-35/-7 -10/-34/-40 -9/-33/-33 
f -8/-32/-6 -7/-31/-47 -6/-30/-46 -5/-29/-5 
f -12/-28/-8 -9/-27/-33 -7/-26/-47 -8/-25/-6 
f -9/-24/-33 -10/-23/-40 -6/-22/-46 -7/-21/-47 
f -10/-20/-40 -11/-19/-7 -5/-18/-5 -6/-17/-46 
f -4/-16/-4 -3/-15/-3 -2/-14/-2 -1/-13/-1 
f -12/-12/-8 -3/-11/-3 -4/-10/-4 -11/-9/-7 
f -5/-8/-5 -1/-7/-1 -2/-6/-2 -8/-5/-6 
f -8/-4/-6 -2/-14/-2 -3/-15/-3 -12/-3/-8 
f -11/-19/-7 -4/-2/-4 -1/-1/-1 -5/-18/-5 
# 78 polygons

